# Blender 4.0.2
# www.blender.org
mtllib edificio3_1.mtl
o Cube
v 1.417886 10.540152 -2.307662
v 1.417886 -2.447685 -2.307662
v 1.417886 10.540152 2.307662
v 1.417886 -2.447685 2.307662
v -1.417886 10.540152 -2.307662
v -1.417886 -2.447685 -2.307662
v -1.417886 10.540152 2.307662
v -1.417886 -2.447685 2.307662
vn -0.0000 1.0000 -0.0000
vn -0.0000 -0.0000 1.0000
vn -1.0000 -0.0000 -0.0000
vn -0.0000 -1.0000 -0.0000
vn 1.0000 -0.0000 -0.0000
vn -0.0000 -0.0000 -1.0000
vt 0.872482 0.684890
vt 0.872891 0.594122
vt 0.922080 0.594532
vt 0.921670 0.685299
vt 0.311060 0.996709
vt 0.314570 0.126040
vt 0.786405 0.129550
vt 0.782895 1.000219
vt 0.788076 0.126726
vt 0.783899 0.998335
vt 0.311555 0.994158
vt 0.315732 0.122549
vt 0.874827 0.629093
vt 0.922543 0.629093
vt 0.922543 0.676809
vt 0.874827 0.676809
vt 0.797966 0.102930
vt 0.796477 1.004246
vt 0.308033 1.002757
vt 0.309523 0.101441
vt 0.787768 0.113063
vt 0.787331 0.990435
vt 0.311863 0.989998
vt 0.312300 0.112626
s 0
usemtl Edificio
f 1/1/1 5/2/1 7/3/1 3/4/1
f 4/5/2 3/6/2 7/7/2 8/8/2
f 8/9/3 7/10/3 5/11/3 6/12/3
f 6/13/4 2/14/4 4/15/4 8/16/4
f 2/17/5 1/18/5 3/19/5 4/20/5
f 6/21/6 5/22/6 1/23/6 2/24/6
