# Blender 4.0.2
# www.blender.org
mtllib Edificio2.mtl
o Cube
v 1.000000 2.706248 -1.000000
v 1.000000 -2.706248 -1.000000
v 1.000000 2.706248 1.000000
v 1.000000 -2.706248 1.000000
v -1.000000 2.706248 -1.000000
v -1.000000 -2.706248 -1.000000
v -1.000000 2.706248 1.000000
v -1.000000 -2.706248 1.000000
vn -0.0000 1.0000 -0.0000
vn -0.0000 -0.0000 1.0000
vn -1.0000 -0.0000 -0.0000
vn -0.0000 -1.0000 -0.0000
vn 1.0000 -0.0000 -0.0000
vn -0.0000 -0.0000 -1.0000
vt 0.428787 0.101972
vt 0.559928 0.101972
vt 0.559928 0.233114
vt 0.428787 0.233114
vt 0.707834 0.003066
vt 0.709039 0.997623
vt 0.268619 0.998828
vt 0.267415 0.004270
vt 0.710461 0.005140
vt 0.708700 0.989673
vt 0.272720 0.987912
vt 0.274481 0.003379
vt 0.680870 0.077799
vt 0.774426 0.077799
vt 0.774426 0.171355
vt 0.680870 0.171355
vt 0.710238 0.005992
vt 0.710327 1.001290
vt 0.269579 1.001379
vt 0.269491 0.006081
vt 0.711027 0.004444
vt 0.709551 0.999770
vt 0.268791 0.998294
vt 0.270267 0.002969
s 0
usemtl Edificio
f 1/1/1 5/2/1 7/3/1 3/4/1
f 4/5/2 3/6/2 7/7/2 8/8/2
f 8/9/3 7/10/3 5/11/3 6/12/3
f 6/13/4 2/14/4 4/15/4 8/16/4
f 2/17/5 1/18/5 3/19/5 4/20/5
f 6/21/6 5/22/6 1/23/6 2/24/6
